<svg xmlns="http://www.w3.org/2000/svg" viewBox="30.4 -0.5 73.5 64.6">
<g fill="#ffffff" fill-opacity="0.07">
<path opacity="0.6" d="M82.9,0.4c0,0-0.1,0-0.1,0.1c-0.2,0.1-0.3,0.2-0.5,0.2L66.8,9.6l18,10.4V0C84.2,0,83.5,0.2,82.9,0.4z"/>
<path opacity="0.8" d="M51.2,63.1l16.4-9.5l-18-10.4l0,20.3C50.1,63.6,50.6,63.4,51.2,63.1z"/>
<path opacity="0.5" d="M103.2,52.5L66.3,31.2l0,0l-1.7-1L31.3,10.9c-0.2,0.6-0.4,1.2-0.4,1.9c0,0.1,0,0.3,0,0.4v38.2 c0,1.2,0.7,2.3,1.7,2.9l15.2,8.9c0.5,0.3,1.1,0.4,1.7,0.4l0-19.5l0-0.8L84,63.2c0.1,0.1,0.2,0.1,0.3,0.1c0,0,0.1,0,0.1,0 c1,0.4,1.8,0.1,2.7-0.5l5.8-3.3l9.2-5.5C102.6,53.7,103,53.1,103.2,52.5z"/>
<path d="M103.4,27.3V12.8c0-1.9-1-3.6-2.6-4.5L87.4,0.6C86.6,0.2,85.7,0,84.8,0v20.1L54.7,2.6l-3.4-1.9 c-1.5-0.8-2.8-0.9-4.3-0.2c0,0-0.1,0-0.1,0.1c-0.2,0.1-0.3,0.2-0.5,0.3l-5.3,3.1l-7.6,4.4c0,0,0,0,0,0c-1,0.6-1.8,1.5-2.3,2.6 c0,0,33.3,19.2,33.3,19.2l1.7,1l0,0l36.9,21.3c0.2-0.7,0.2-1.9,0.2-1.9V27.3z"/>
</g>
</svg>
